<mxfile host="app.diagrams.net" agent="Mozilla/5.0 (Windows NT 10.0; Win64; x64) AppleWebKit/537.36 (KHTML, like Gecko) Chrome/140.0.0.0 Safari/537.36" version="28.2.5">
  <diagram name="Página-1" id="CD02W3V0j9W9ODvmm2YW">
    <mxGraphModel dx="2037" dy="2230" grid="1" gridSize="10" guides="1" tooltips="1" connect="1" arrows="1" fold="1" page="1" pageScale="1" pageWidth="827" pageHeight="1169" math="0" shadow="0">
      <root>
        <mxCell id="0" />
        <mxCell id="1" parent="0" />
        <mxCell id="k_DHxyyt-Dbyr2-88p-c-59" value="" style="rounded=0;whiteSpace=wrap;html=1;" vertex="1" parent="1">
          <mxGeometry y="-40" width="380" height="40" as="geometry" />
        </mxCell>
        <mxCell id="k_DHxyyt-Dbyr2-88p-c-1" value="&lt;span style=&quot;font-size: 18px;&quot;&gt;Paciente&lt;/span&gt;" style="shape=umlActor;verticalLabelPosition=bottom;verticalAlign=top;html=1;outlineConnect=0;" vertex="1" parent="1">
          <mxGeometry x="42.5" y="180" width="75" height="150" as="geometry" />
        </mxCell>
        <mxCell id="k_DHxyyt-Dbyr2-88p-c-11" value="&lt;font style=&quot;font-size: 24px;&quot;&gt;Sistema &quot;Meu posto de Saúde&quot;&lt;/font&gt;" style="swimlane;whiteSpace=wrap;html=1;startSize=80;" vertex="1" parent="1">
          <mxGeometry x="200" y="40" width="400" height="740" as="geometry" />
        </mxCell>
        <mxCell id="k_DHxyyt-Dbyr2-88p-c-19" value="&lt;font style=&quot;font-size: 18px;&quot;&gt;Cadastrar conta&lt;/font&gt;" style="ellipse;whiteSpace=wrap;html=1;" vertex="1" parent="k_DHxyyt-Dbyr2-88p-c-11">
          <mxGeometry x="120" y="380" width="150" height="60" as="geometry" />
        </mxCell>
        <mxCell id="k_DHxyyt-Dbyr2-88p-c-21" value="&lt;font style=&quot;font-size: 18px;&quot;&gt;Realizar login&lt;/font&gt;" style="ellipse;whiteSpace=wrap;html=1;" vertex="1" parent="k_DHxyyt-Dbyr2-88p-c-11">
          <mxGeometry x="120" y="450" width="150" height="60" as="geometry" />
        </mxCell>
        <mxCell id="k_DHxyyt-Dbyr2-88p-c-22" value="&lt;font style=&quot;font-size: 18px;&quot;&gt;Agendar consulta&lt;/font&gt;" style="ellipse;whiteSpace=wrap;html=1;" vertex="1" parent="k_DHxyyt-Dbyr2-88p-c-11">
          <mxGeometry x="120" y="170" width="150" height="60" as="geometry" />
        </mxCell>
        <mxCell id="k_DHxyyt-Dbyr2-88p-c-24" value="&lt;font style=&quot;font-size: 18px;&quot;&gt;Agendar exame&lt;/font&gt;" style="ellipse;whiteSpace=wrap;html=1;" vertex="1" parent="k_DHxyyt-Dbyr2-88p-c-11">
          <mxGeometry x="120" y="240" width="150" height="60" as="geometry" />
        </mxCell>
        <mxCell id="k_DHxyyt-Dbyr2-88p-c-25" value="&lt;font style=&quot;font-size: 18px;&quot;&gt;Acessar histório médico&lt;/font&gt;" style="ellipse;whiteSpace=wrap;html=1;" vertex="1" parent="k_DHxyyt-Dbyr2-88p-c-11">
          <mxGeometry x="120" y="100" width="150" height="60" as="geometry" />
        </mxCell>
        <mxCell id="k_DHxyyt-Dbyr2-88p-c-31" value="&lt;span style=&quot;font-size: 18px;&quot;&gt;Gerenciar prontuário&lt;/span&gt;" style="ellipse;whiteSpace=wrap;html=1;" vertex="1" parent="k_DHxyyt-Dbyr2-88p-c-11">
          <mxGeometry x="120" y="530" width="150" height="60" as="geometry" />
        </mxCell>
        <mxCell id="k_DHxyyt-Dbyr2-88p-c-32" value="&lt;font style=&quot;font-size: 18px;&quot;&gt;Emitir receita médica&lt;/font&gt;" style="ellipse;whiteSpace=wrap;html=1;" vertex="1" parent="k_DHxyyt-Dbyr2-88p-c-11">
          <mxGeometry x="120" y="600" width="150" height="60" as="geometry" />
        </mxCell>
        <mxCell id="k_DHxyyt-Dbyr2-88p-c-43" value="&lt;font style=&quot;font-size: 16px;&quot;&gt;Gerenciar usuários/sistema&lt;/font&gt;" style="ellipse;whiteSpace=wrap;html=1;" vertex="1" parent="k_DHxyyt-Dbyr2-88p-c-11">
          <mxGeometry x="120" y="670" width="150" height="60" as="geometry" />
        </mxCell>
        <mxCell id="k_DHxyyt-Dbyr2-88p-c-26" value="&lt;font style=&quot;font-size: 18px;&quot;&gt;Verificar receita médica&lt;/font&gt;" style="ellipse;whiteSpace=wrap;html=1;" vertex="1" parent="k_DHxyyt-Dbyr2-88p-c-11">
          <mxGeometry x="120" y="310" width="150" height="60" as="geometry" />
        </mxCell>
        <mxCell id="k_DHxyyt-Dbyr2-88p-c-47" value="" style="endArrow=classic;html=1;rounded=0;entryX=1;entryY=0.5;entryDx=0;entryDy=0;" edge="1" parent="k_DHxyyt-Dbyr2-88p-c-11" target="k_DHxyyt-Dbyr2-88p-c-21">
          <mxGeometry width="50" height="50" relative="1" as="geometry">
            <mxPoint x="470" y="510" as="sourcePoint" />
            <mxPoint x="450" y="460" as="targetPoint" />
          </mxGeometry>
        </mxCell>
        <mxCell id="k_DHxyyt-Dbyr2-88p-c-49" value="" style="endArrow=classic;html=1;rounded=0;entryX=1;entryY=0.5;entryDx=0;entryDy=0;" edge="1" parent="k_DHxyyt-Dbyr2-88p-c-11" target="k_DHxyyt-Dbyr2-88p-c-25">
          <mxGeometry width="50" height="50" relative="1" as="geometry">
            <mxPoint x="470" y="510" as="sourcePoint" />
            <mxPoint x="370" y="280" as="targetPoint" />
          </mxGeometry>
        </mxCell>
        <mxCell id="k_DHxyyt-Dbyr2-88p-c-50" value="" style="endArrow=classic;html=1;rounded=0;entryX=1;entryY=0.5;entryDx=0;entryDy=0;" edge="1" parent="k_DHxyyt-Dbyr2-88p-c-11" target="k_DHxyyt-Dbyr2-88p-c-25">
          <mxGeometry width="50" height="50" relative="1" as="geometry">
            <mxPoint x="480" y="200" as="sourcePoint" />
            <mxPoint x="350" y="240" as="targetPoint" />
          </mxGeometry>
        </mxCell>
        <mxCell id="k_DHxyyt-Dbyr2-88p-c-51" value="" style="endArrow=classic;html=1;rounded=0;" edge="1" parent="k_DHxyyt-Dbyr2-88p-c-11">
          <mxGeometry width="50" height="50" relative="1" as="geometry">
            <mxPoint x="480" y="200" as="sourcePoint" />
            <mxPoint x="270" y="410" as="targetPoint" />
          </mxGeometry>
        </mxCell>
        <mxCell id="k_DHxyyt-Dbyr2-88p-c-52" value="" style="endArrow=classic;html=1;rounded=0;entryX=1;entryY=0.5;entryDx=0;entryDy=0;" edge="1" parent="k_DHxyyt-Dbyr2-88p-c-11" target="k_DHxyyt-Dbyr2-88p-c-21">
          <mxGeometry width="50" height="50" relative="1" as="geometry">
            <mxPoint x="480" y="200" as="sourcePoint" />
            <mxPoint x="370" y="380" as="targetPoint" />
          </mxGeometry>
        </mxCell>
        <mxCell id="k_DHxyyt-Dbyr2-88p-c-53" value="" style="endArrow=classic;html=1;rounded=0;entryX=1;entryY=0.5;entryDx=0;entryDy=0;" edge="1" parent="k_DHxyyt-Dbyr2-88p-c-11" target="k_DHxyyt-Dbyr2-88p-c-31">
          <mxGeometry width="50" height="50" relative="1" as="geometry">
            <mxPoint x="480" y="200" as="sourcePoint" />
            <mxPoint x="330" y="550" as="targetPoint" />
          </mxGeometry>
        </mxCell>
        <mxCell id="k_DHxyyt-Dbyr2-88p-c-54" value="" style="endArrow=classic;html=1;rounded=0;entryX=1;entryY=0.5;entryDx=0;entryDy=0;" edge="1" parent="k_DHxyyt-Dbyr2-88p-c-11" target="k_DHxyyt-Dbyr2-88p-c-32">
          <mxGeometry width="50" height="50" relative="1" as="geometry">
            <mxPoint x="480" y="200" as="sourcePoint" />
            <mxPoint x="350" y="590" as="targetPoint" />
          </mxGeometry>
        </mxCell>
        <mxCell id="k_DHxyyt-Dbyr2-88p-c-23" value="&lt;span style=&quot;font-size: 18px;&quot;&gt;Enfermeiro&lt;/span&gt;" style="shape=umlActor;verticalLabelPosition=bottom;verticalAlign=top;html=1;outlineConnect=0;" vertex="1" parent="1">
          <mxGeometry x="680" y="465" width="77.5" height="155" as="geometry" />
        </mxCell>
        <mxCell id="k_DHxyyt-Dbyr2-88p-c-28" value="&lt;span style=&quot;font-size: 18px;&quot;&gt;Coordenador&lt;/span&gt;&lt;div&gt;&lt;span style=&quot;font-size: 18px;&quot;&gt;do posto de saúde&lt;/span&gt;&lt;/div&gt;" style="shape=umlActor;verticalLabelPosition=bottom;verticalAlign=top;html=1;outlineConnect=0;" vertex="1" parent="1">
          <mxGeometry x="42.5" y="465" width="77.5" height="155" as="geometry" />
        </mxCell>
        <mxCell id="k_DHxyyt-Dbyr2-88p-c-29" value="&lt;span style=&quot;font-size: 18px;&quot;&gt;Médico&lt;/span&gt;" style="shape=umlActor;verticalLabelPosition=bottom;verticalAlign=top;html=1;outlineConnect=0;" vertex="1" parent="1">
          <mxGeometry x="682.5" y="150" width="75" height="150" as="geometry" />
        </mxCell>
        <mxCell id="k_DHxyyt-Dbyr2-88p-c-36" value="" style="endArrow=classic;html=1;rounded=0;entryX=0;entryY=0.5;entryDx=0;entryDy=0;" edge="1" parent="1" target="k_DHxyyt-Dbyr2-88p-c-19">
          <mxGeometry width="50" height="50" relative="1" as="geometry">
            <mxPoint x="130" y="270" as="sourcePoint" />
            <mxPoint x="300" y="180" as="targetPoint" />
          </mxGeometry>
        </mxCell>
        <mxCell id="k_DHxyyt-Dbyr2-88p-c-37" value="" style="endArrow=classic;html=1;rounded=0;entryX=0;entryY=0.5;entryDx=0;entryDy=0;" edge="1" parent="1" target="k_DHxyyt-Dbyr2-88p-c-21">
          <mxGeometry width="50" height="50" relative="1" as="geometry">
            <mxPoint x="130" y="270" as="sourcePoint" />
            <mxPoint x="400" y="290" as="targetPoint" />
          </mxGeometry>
        </mxCell>
        <mxCell id="k_DHxyyt-Dbyr2-88p-c-38" value="" style="endArrow=classic;html=1;rounded=0;entryX=0;entryY=0.5;entryDx=0;entryDy=0;" edge="1" parent="1" target="k_DHxyyt-Dbyr2-88p-c-22">
          <mxGeometry width="50" height="50" relative="1" as="geometry">
            <mxPoint x="130" y="270" as="sourcePoint" />
            <mxPoint x="350" y="290" as="targetPoint" />
          </mxGeometry>
        </mxCell>
        <mxCell id="k_DHxyyt-Dbyr2-88p-c-39" value="" style="endArrow=classic;html=1;rounded=0;entryX=0;entryY=0.5;entryDx=0;entryDy=0;" edge="1" parent="1" target="k_DHxyyt-Dbyr2-88p-c-24">
          <mxGeometry width="50" height="50" relative="1" as="geometry">
            <mxPoint x="130" y="270" as="sourcePoint" />
            <mxPoint x="420" y="370" as="targetPoint" />
          </mxGeometry>
        </mxCell>
        <mxCell id="k_DHxyyt-Dbyr2-88p-c-40" value="" style="endArrow=classic;html=1;rounded=0;entryX=0;entryY=0.5;entryDx=0;entryDy=0;" edge="1" parent="1" target="k_DHxyyt-Dbyr2-88p-c-25">
          <mxGeometry width="50" height="50" relative="1" as="geometry">
            <mxPoint x="130" y="270" as="sourcePoint" />
            <mxPoint x="400" y="490" as="targetPoint" />
          </mxGeometry>
        </mxCell>
        <mxCell id="k_DHxyyt-Dbyr2-88p-c-42" value="" style="endArrow=classic;html=1;rounded=0;entryX=0;entryY=0.333;entryDx=0;entryDy=0;entryPerimeter=0;" edge="1" parent="1" target="k_DHxyyt-Dbyr2-88p-c-43">
          <mxGeometry width="50" height="50" relative="1" as="geometry">
            <mxPoint x="130" y="540" as="sourcePoint" />
            <mxPoint x="270" y="550" as="targetPoint" />
          </mxGeometry>
        </mxCell>
        <mxCell id="k_DHxyyt-Dbyr2-88p-c-44" value="" style="endArrow=classic;html=1;rounded=0;" edge="1" parent="1">
          <mxGeometry width="50" height="50" relative="1" as="geometry">
            <mxPoint x="130" y="540" as="sourcePoint" />
            <mxPoint x="320" y="520" as="targetPoint" />
          </mxGeometry>
        </mxCell>
        <mxCell id="k_DHxyyt-Dbyr2-88p-c-45" value="" style="endArrow=classic;html=1;rounded=0;entryX=0.002;entryY=0.419;entryDx=0;entryDy=0;entryPerimeter=0;" edge="1" parent="1" target="k_DHxyyt-Dbyr2-88p-c-26">
          <mxGeometry width="50" height="50" relative="1" as="geometry">
            <mxPoint x="130" y="270" as="sourcePoint" />
            <mxPoint x="460" y="380" as="targetPoint" />
          </mxGeometry>
        </mxCell>
        <mxCell id="k_DHxyyt-Dbyr2-88p-c-46" value="" style="endArrow=classic;html=1;rounded=0;" edge="1" parent="1">
          <mxGeometry width="50" height="50" relative="1" as="geometry">
            <mxPoint x="130" y="540" as="sourcePoint" />
            <mxPoint x="320" y="450" as="targetPoint" />
          </mxGeometry>
        </mxCell>
        <mxCell id="k_DHxyyt-Dbyr2-88p-c-48" value="" style="endArrow=classic;html=1;rounded=0;entryX=1;entryY=0.5;entryDx=0;entryDy=0;" edge="1" parent="1" target="k_DHxyyt-Dbyr2-88p-c-19">
          <mxGeometry width="50" height="50" relative="1" as="geometry">
            <mxPoint x="670" y="550" as="sourcePoint" />
            <mxPoint x="680" y="420" as="targetPoint" />
          </mxGeometry>
        </mxCell>
        <mxCell id="k_DHxyyt-Dbyr2-88p-c-57" value="&lt;font style=&quot;font-size: 18px;&quot;&gt;Diagrama de Casos de Uso Comportamental&lt;/font&gt;" style="text;html=1;align=center;verticalAlign=middle;resizable=0;points=[];autosize=1;strokeColor=none;fillColor=none;" vertex="1" parent="1">
          <mxGeometry y="-40" width="380" height="40" as="geometry" />
        </mxCell>
      </root>
    </mxGraphModel>
  </diagram>
</mxfile>
